<?xml version="1.0" encoding="UTF-8"?>
<svg xmlns="http://www.w3.org/2000/svg" xmlns:xlink="http://www.w3.org/1999/xlink" width="1920mm" height="1200mm" viewBox="0 0 1920 1200" version="1.1">
<g id="surface1">
<rect x="0" y="0" width="1920" height="1200" style="fill:rgb(23.529412%,23.529412%,23.529412%);fill-opacity:1;stroke:none;"/>
<rect x="0" y="0" width="1920" height="1200" style="fill:rgb(11.764706%,11.764706%,11.764706%);fill-opacity:1;stroke:none;"/>
<path style="fill:none;stroke-width:1;stroke-linecap:butt;stroke-linejoin:miter;stroke:rgb(100%,100%,100%);stroke-opacity:1;stroke-miterlimit:10;" d="M -1 0 L 1 0 " transform="matrix(1000,0,0,-1000,0,0)"/>
<path style="fill:none;stroke-width:1;stroke-linecap:butt;stroke-linejoin:miter;stroke:rgb(100%,100%,100%);stroke-opacity:1;stroke-miterlimit:10;" d="M 0 -1 L 0 1 " transform="matrix(1000,0,0,-1000,0,0)"/>
<path style="fill:none;stroke-width:1;stroke-linecap:butt;stroke-linejoin:miter;stroke:rgb(100%,100%,100%);stroke-opacity:1;stroke-miterlimit:10;" d="M -0.02 0.0000015625 L -0.0190625 0.0000132813 L -0.01875 0.0000210938 L -0.018125 0.0000289063 L -0.0178125 0.0000367188 L -0.0175 0.000040625 L -0.0171875 0.000146094 L -0.016875 0.000247656 L -0.01625 0.000442969 L -0.0159375 0.00055625 L -0.015625 0.000673438 L -0.015 0.000892188 L -0.0146875 0.000997656 L -0.014375 0.00110703 L -0.01375 0.00131016 L -0.0128125 0.00160313 L -0.0125 0.00169688 L -0.011875 0.00187656 L -0.0115625 0.0019625 L -0.01125 0.00204453 L -0.0103125 0.00227891 L -0.01 0.00235313 L -0.009375 0.00249375 L -0.00875 0.00262656 L -0.0084375 0.00268906 L -0.008125 0.00275547 L -0.0075 0.00287266 L -0.0065625 0.00303672 L -0.00625 0.0030875 L -0.0053125 0.00322813 L -0.005 0.00327109 L -0.0046875 0.00331016 L -0.0040625 0.00338047 L -0.0034375 0.00344297 L -0.0028125 0.00349766 L -0.0021875 0.00354453 L -0.0015625 0.00358359 L -0.000625 0.00363047 L -0.0003125 0.00363828 L -0.000000000447035 0.00365 L 0.000625 0.00366563 L 0.0009375 0.00366563 L 0.00125 0.00366953 L 0.001875 0.00366953 L 0.0025 0.00366172 L 0.0028125 0.00365391 L 0.003125 0.00364219 L 0.00375 0.00361094 L 0.0040625 0.00359141 L 0.004375 0.00357578 L 0.005 0.00352891 L 0.0053125 0.00350156 L 0.005625 0.00347813 L 0.0059375 0.00345078 L 0.0065625 0.00338828 L 0.0071875 0.00331797 L 0.008125 0.00320078 L 0.0084375 0.00315781 L 0.0090625 0.00306406 L 0.009375 0.00301328 L 0.01 0.00290391 L 0.0103125 0.00284531 L 0.010625 0.00279063 L 0.01125 0.00266563 L 0.0121875 0.00246641 L 0.0128125 0.00232578 L 0.0134375 0.00217734 L 0.0140625 0.00202109 L 0.0146875 0.00185703 L 0.015 0.00177109 L 0.015625 0.00159141 L 0.0159375 0.00149375 L 0.01625 0.00140391 L 0.0165625 0.00130234 L 0.0171875 0.00110703 L 0.018125 0.000790625 L 0.0184375 0.00068125 L 0.01875 0.000567969 L 0.0190625 0.000458594 L 0.019375 0.000345313 L 0.0196875 0.000216406 L 0.02 0.0000992188 Z M -0.02 0.0000015625 " transform="matrix(1000,0,0,-1000,-20,-0.1)"/>
</g>
</svg>
