<?xml version="1.0" encoding="UTF-8"?>
<svg xmlns="http://www.w3.org/2000/svg" xmlns:xlink="http://www.w3.org/1999/xlink" width="1920mm" height="1193mm" viewBox="0 0 1920 1193" version="1.1">
<g id="surface5">
<rect x="0" y="0" width="1920" height="1193" style="fill:rgb(23.529412%,23.529412%,23.529412%);fill-opacity:1;stroke:none;"/>
<rect x="0" y="0" width="1920" height="1193" style="fill:rgb(11.764706%,11.764706%,11.764706%);fill-opacity:1;stroke:none;"/>
<path style="fill:none;stroke-width:1;stroke-linecap:butt;stroke-linejoin:miter;stroke:rgb(100%,100%,100%);stroke-opacity:1;stroke-miterlimit:10;" d="M -0.999531 -0.0001 L 1.000469 -0.0001 " transform="matrix(1,0,0,1,-0.02,0.0001)"/>
<path style="fill:none;stroke-width:1;stroke-linecap:butt;stroke-linejoin:miter;stroke:rgb(100%,100%,100%);stroke-opacity:1;stroke-miterlimit:10;" d="M 0.00046875 -1.0001 L 0.00046875 0.9999 " transform="matrix(1,0,0,1,-0.02,0.0001)"/>
<path style="fill:none;stroke-width:1;stroke-linecap:butt;stroke-linejoin:miter;stroke:rgb(100%,100%,100%);stroke-opacity:1;stroke-miterlimit:10;" d="M -0.0199995 0.0000001 L -0.019687 0.0000079125 L -0.0193745 0.0000118187 L -0.018437 0.0000352562 L -0.0181245 0.0000391625 L -0.0174995 0.0000547875 L -0.0168745 0.000257912 L -0.016562 0.000351662 L -0.0162495 0.000441506 L -0.015937 0.000554787 L -0.0156245 0.000671975 L -0.0149995 0.000890725 L -0.014687 0.000996194 L -0.0143745 0.00110557 L -0.0137495 0.00130869 L -0.012812 0.00160166 L -0.0124995 0.00169541 L -0.0118745 0.0018751 L -0.011562 0.00196104 L -0.0112495 0.00204307 L -0.0106245 0.00219932 L -0.010312 0.00227354 L -0.00999953 0.00235166 L -0.00937453 0.00249229 L -0.00874953 0.0026251 L -0.00781203 0.0028126 L -0.00749953 0.00287119 L -0.00687453 0.00298057 L -0.00593703 0.00313291 L -0.00562453 0.00317979 L -0.00468703 0.00330869 L -0.00437453 0.00334385 L -0.00406203 0.0033751 L -0.00374953 0.00341026 L -0.00343703 0.0034376 L -0.00312453 0.00346885 L -0.00281203 0.00349229 L -0.00249953 0.00351963 L -0.00218703 0.00353916 L -0.00187453 0.0035626 L -0.00156203 0.00357822 L -0.00124953 0.00359776 L -0.000937031 0.00360947 L -0.000624531 0.0036251 L -0.000312031 0.00363682 L 0.000625469 0.00366026 L 0.000937969 0.00366416 L 0.00187547 0.00366416 L 0.00250047 0.00365635 L 0.00281297 0.00364854 L 0.00312547 0.00363682 L 0.00406297 0.00358994 L 0.00437547 0.00357041 L 0.00500047 0.00352354 L 0.00531297 0.00349619 L 0.00562547 0.00347276 L 0.00593797 0.00344541 L 0.00656297 0.00338291 L 0.00718797 0.0033126 L 0.00812547 0.00319541 L 0.00843797 0.00314854 L 0.00875047 0.00310557 L 0.00906297 0.00305869 L 0.00937547 0.00300791 L 0.0100005 0.00289854 L 0.010938 0.00272276 L 0.0112505 0.00266026 L 0.012188 0.00246104 L 0.012813 0.00232041 L 0.013438 0.00217197 L 0.014063 0.00201572 L 0.014688 0.00185166 L 0.0150005 0.00176572 L 0.0156255 0.00158604 L 0.0162505 0.00139854 L 0.017188 0.00110557 L 0.0175005 0.0010001 L 0.017813 0.000898537 L 0.0181255 0.000789162 L 0.018438 0.000683694 L 0.0193755 0.00034385 L 0.019688 0.00021885 L 0.0200005 0.000101662 Z M -0.0199995 0.0000001 " transform="matrix(1000,0,0,-1000,-0.02,0.0001)"/>
</g>
</svg>
