<?xml version="1.0" encoding="UTF-8"?>
<svg xmlns="http://www.w3.org/2000/svg" xmlns:xlink="http://www.w3.org/1999/xlink" width="1920mm" height="1200mm" viewBox="0 0 1920 1200" version="1.1">
<g id="surface1">
<path style="fill:none;stroke-width:1;stroke-linecap:butt;stroke-linejoin:miter;stroke:rgb(100%,100%,100%);stroke-opacity:1;stroke-miterlimit:10;" d="M -0.02 0.00762266 L -0.0184375 0.00777891 L -0.0178125 0.00784922 L -0.016875 0.00794297 L -0.01625 0.00799766 L -0.0159375 0.00802109 L -0.015625 0.00804844 L -0.0146875 0.00810703 L -0.01375 0.00815391 L -0.0134375 0.00816563 L -0.013125 0.00817344 L -0.0128125 0.00818516 L -0.0125 0.00819297 L -0.011875 0.00820078 L -0.0115625 0.00820078 L -0.01125 0.00820469 L -0.0109375 0.00820078 L -0.010625 0.00820078 L -0.0103125 0.00819297 L -0.01 0.00818906 L -0.009375 0.00817344 L -0.00875 0.00815 L -0.0078125 0.00810313 L -0.0071875 0.00806406 L -0.00625 0.00799375 L -0.005625 0.00793906 L -0.0046875 0.00784531 L -0.004375 0.00781016 L -0.0040625 0.00777109 L -0.00375 0.00773594 L -0.0034375 0.00769688 L -0.0025 0.00756797 L -0.0021875 0.00752109 L -0.001875 0.00747813 L -0.0009375 0.00732578 L -0.000000000447035 0.00716172 L 0.0003125 0.00710313 L 0.000625 0.00704063 L 0.0009375 0.00698203 L 0.00125 0.00691953 L 0.0021875 0.00672031 L 0.003125 0.00650938 L 0.00375 0.00636094 L 0.004375 0.00620469 L 0.005625 0.00587656 L 0.0059375 0.00578672 L 0.00625 0.00570078 L 0.006875 0.00552109 L 0.0071875 0.00542734 L 0.0078125 0.00523203 L 0.00875 0.00492734 L 0.009375 0.00471641 L 0.01 0.00449766 L 0.0103125 0.00438438 L 0.010625 0.004275 L 0.0109375 0.00415781 L 0.01125 0.00404453 L 0.011875 0.00381016 L 0.0121875 0.00368516 L 0.0128125 0.00344297 L 0.013125 0.00331797 L 0.0140625 0.00293125 L 0.014375 0.00279844 L 0.015 0.002525 L 0.0159375 0.00210313 L 0.0165625 0.00181406 L 0.0175 0.00136875 L 0.018125 0.00106406 L 0.01875 0.000751563 L 0.019375 0.00043125 L 0.0196875 0.000263281 L 0.02 0.0000992188 Z M -0.02 0.00762266 " transform="matrix(1000,0,0,-1000,-20,-0.1)"/>
<path style="fill:none;stroke-width:1;stroke-linecap:butt;stroke-linejoin:miter;stroke:rgb(100%,100%,100%);stroke-opacity:1;stroke-miterlimit:10;" d="M -1 0.0000015625 L 1 0.0000015625 " transform="matrix(1000,0,0,-1000,-20,-0.1)"/>
<path style="fill:none;stroke-width:1;stroke-linecap:butt;stroke-linejoin:miter;stroke:rgb(100%,100%,100%);stroke-opacity:1;stroke-miterlimit:10;" d="M -0.000000000447035 -0.999998 L -0.000000000447035 1.000002 " transform="matrix(1000,0,0,-1000,-20,-0.1)"/>
</g>
</svg>
